<svg width="28" height="28" viewBox="0 0 28 28" fill="none" xmlns="http://www.w3.org/2000/svg">
<path d="M2.97998 4.00793V23.9207C2.97995 24.216 3.05648 24.5062 3.20209 24.7631C3.3477 25.02 3.55742 25.2347 3.81078 25.3863C4.06414 25.5379 4.35248 25.6213 4.64766 25.6282C4.94284 25.6351 5.23478 25.5654 5.49498 25.4259L24.0791 15.4695C24.3514 15.3235 24.5789 15.1064 24.7376 14.8414C24.8962 14.5763 24.98 14.2732 24.98 13.9643C24.98 13.6554 24.8962 13.3523 24.7376 13.0873C24.5789 12.8222 24.3514 12.6052 24.0791 12.4592L5.49498 2.5028C5.23478 2.36324 4.94284 2.29352 4.64766 2.30046C4.35248 2.30739 4.06414 2.39074 3.81078 2.54237C3.55742 2.69399 3.3477 2.90871 3.20209 3.16558C3.05648 3.42244 2.97995 3.71267 2.97998 4.00793V4.00793Z" stroke="white" stroke-width="2" stroke-linecap="round" stroke-linejoin="round"/>
</svg>
