<svg width="28" height="36" viewBox="0 0 28 36" fill="none" xmlns="http://www.w3.org/2000/svg">
<path d="M5 9.21177C5 7.50552 6.5 6 8.2 6H22.7C24.5 6 26 7.50552 26 9.21177V31.7835C26 33.5901 24.5 34.9953 22.8 34.9953H8.2C6.5 35.0956 5 33.5901 5 31.8839V9.21177Z" fill="#657580"/>
<path d="M22.32 7.30005H25.32L22.32 3.30005V7.30005Z" fill="#657580"/>
<path d="M5.59998 29.7V33.7L2.59998 29.7H5.59998Z" fill="#657580"/>
<path d="M2 5.21177C2 3.50552 3.5 2 5.2 2H19.7C21.5 2 23 3.50552 23 5.21177V27.7835C23 29.5901 21.5 30.9953 19.8 30.9953H5.2C3.5 31.0956 2 29.5901 2 27.8839V5.21177Z" fill="#F4F4F5"/>
<path d="M2 5.21177C2 3.50552 3.5 2 5.2 2H19.7C21.5 2 23 3.50552 23 5.21177V27.7835C23 29.5901 21.5 30.9953 19.8 30.9953H5.2C3.5 31.0956 2 29.5901 2 27.8839V5.21177Z" fill="#F4F4F5"/>
<path d="M15.1018 10.3241C17.8445 9.69085 20.5848 9.97692 23 10.9805V27.7835C23 29.5901 21.5 30.9953 19.8 30.9953H7.79367C6.65448 29.5426 5.80836 27.823 5.36565 25.9054C3.75159 18.9142 8.11059 11.9381 15.1018 10.3241Z" fill="#C7C7C7"/>
<path fill-rule="evenodd" clip-rule="evenodd" d="M23 16.5V19.8559C22.1112 20.1099 21.3275 20.6035 20.7228 21.2566L20.7185 21.2567C20.2307 21.7322 19.078 21.3044 19.078 21.3044C19.0331 18.9614 20.7271 16.9634 23 16.5Z" fill="#2F383E"/>
<path d="M10.0688 19.6489C7.60912 20.7432 6.50063 23.5699 7.59292 25.9627L8.13956 25.7195C8.3895 25.6082 8.58379 25.4054 8.69885 25.1569C9.17452 24.1291 10.0177 23.256 11.1507 22.7519C12.4227 22.186 13.8052 22.1981 14.9964 22.6689L15.0002 22.6671C15.5381 22.8973 16.5 22 16.5 22C15.4077 19.6072 12.5282 18.5546 10.0688 19.6489Z" fill="#2F383E"/>
</svg>
