<svg width="51" height="50" viewBox="0 0 51 50" fill="none" xmlns="http://www.w3.org/2000/svg">
<path d="M30.2825 25.0001C33.4845 24.1236 36.4013 22.4243 38.7429 20.071C39.0331 19.7807 39.2632 19.4361 39.4202 19.0569C39.5771 18.6777 39.6579 18.2713 39.6578 17.8609C39.6577 17.4504 39.5768 17.0441 39.4196 16.6649C39.2625 16.2858 39.0322 15.9413 38.7419 15.6512C38.4516 15.361 38.107 15.1309 37.7278 14.9739C37.3486 14.817 36.9422 14.7362 36.5318 14.7363C36.1214 14.7364 35.715 14.8174 35.3359 14.9745C34.9567 15.1317 34.6123 15.3619 34.3221 15.6522C31.9013 18.059 28.6295 19.4146 25.2159 19.4251H24.4117C20.9981 19.4146 17.7263 18.059 15.3055 15.6522C15.0153 15.3619 14.6708 15.1317 14.2917 14.9745C13.9126 14.8174 13.5062 14.7364 13.0958 14.7363C12.6854 14.7362 12.2789 14.817 11.8997 14.9739C11.5205 15.1309 11.1759 15.361 10.8857 15.6512C10.5954 15.9413 10.3651 16.2858 10.208 16.6649C10.0508 17.0441 9.96987 17.4504 9.96977 17.8609C9.96968 18.2713 10.0504 18.6777 10.2074 19.0569C10.3644 19.4361 10.5945 19.7807 10.8846 20.071C13.2262 22.4243 16.143 24.1236 19.345 25.0001V30.3126L14.1513 34.0251C13.3418 34.603 12.6819 35.3656 12.2265 36.2498C11.771 37.1339 11.5331 38.1139 11.5325 39.1085V45.3126C11.5325 46.1414 11.8618 46.9363 12.4478 47.5223C13.0339 48.1084 13.8287 48.4376 14.6575 48.4376C15.4863 48.4376 16.2812 48.1084 16.8672 47.5223C17.4533 46.9363 17.7825 46.1414 17.7825 45.3126V39.1085L24.0325 34.6439V37.7689C24.0381 39.4253 24.696 41.0129 25.8638 42.1876L31.1971 47.5231C31.7834 48.1093 32.5785 48.4386 33.4075 48.4386C34.2366 48.4386 35.0317 48.1093 35.6179 47.5231C36.2042 46.9368 36.5335 46.1417 36.5335 45.3126C36.5335 44.4836 36.2042 43.6885 35.6179 43.1022L30.2825 37.7689V25.0001Z" stroke="#FFEF65" stroke-width="2" stroke-linecap="round" stroke-linejoin="round" vector-effect="non-scaling-stroke"/>
<path d="M20.1263 7.8125C20.1263 9.2629 20.7024 10.6539 21.728 11.6795C22.7536 12.7051 24.1446 13.2812 25.595 13.2812C27.0454 13.2812 28.4364 12.7051 29.462 11.6795C30.4876 10.6539 31.0638 9.2629 31.0638 7.8125C31.0638 6.3621 30.4876 4.9711 29.462 3.94551C28.4364 2.91992 27.0454 2.34375 25.595 2.34375C24.1446 2.34375 22.7536 2.91992 21.728 3.94551C20.7024 4.9711 20.1263 6.3621 20.1263 7.8125V7.8125Z" stroke="#FFEF65" stroke-width="2" stroke-linecap="round" stroke-linejoin="round" vector-effect="non-scaling-stroke"/>
</svg>
