<svg width="50" height="50" viewBox="0 0 50 50" fill="none" xmlns="http://www.w3.org/2000/svg">
<path d="M23.985 21.3417C24.1116 21.0763 24.1795 20.7867 24.1839 20.4926C24.1883 20.1986 24.1291 19.9071 24.0104 19.638C23.8917 19.369 23.7163 19.1288 23.4962 18.9338C23.276 18.7388 23.0164 18.5937 22.735 18.5083C20.0313 17.6978 17.156 17.6517 14.4277 18.3751C11.6994 19.0985 9.22467 20.5633 7.27783 22.607C5.331 24.6507 3.98806 27.1936 3.39787 29.9538C2.80768 32.714 2.99328 35.5837 3.93409 38.2448C4.87491 40.906 6.53421 43.2547 8.72808 45.0306C10.9219 46.8065 13.5647 47.9403 16.3635 48.3063C19.1622 48.6723 22.0076 48.2562 24.5844 47.1041C27.1611 45.952 29.3686 44.109 30.962 41.7792C31.1278 41.5362 31.2389 41.2602 31.288 40.9702C31.337 40.6802 31.3228 40.383 31.2462 40.099C31.1696 39.8151 31.0325 39.551 30.8443 39.325C30.6561 39.099 30.4212 38.9163 30.1558 38.7896L18.3454 33.15L23.985 21.3417Z" stroke="#FFEF65" stroke-width="2" stroke-linecap="round" stroke-linejoin="round"/>
<path d="M12.2331 26.2502C12.3876 26.2502 12.5387 26.2961 12.6671 26.3819C12.7956 26.4678 12.8958 26.5898 12.9549 26.7325C13.014 26.8753 13.0295 27.0324 12.9993 27.1839C12.9692 27.3355 12.8948 27.4747 12.7855 27.5839C12.6763 27.6932 12.5371 27.7676 12.3855 27.7977C12.234 27.8279 12.0769 27.8124 11.9341 27.7533C11.7914 27.6941 11.6694 27.594 11.5835 27.4655C11.4977 27.3371 11.4519 27.186 11.4519 27.0315C11.4519 26.8243 11.5342 26.6256 11.6807 26.4791C11.8272 26.3326 12.0259 26.2502 12.2331 26.2502" stroke="#FFEF65" stroke-width="2" stroke-linecap="round" stroke-linejoin="round"/>
<path d="M40.6911 34.375C40.6911 35.2038 41.0204 35.9987 41.6064 36.5847C42.1925 37.1708 42.9873 37.5 43.8161 37.5C44.6449 37.5 45.4398 37.1708 46.0258 36.5847C46.6119 35.9987 46.9411 35.2038 46.9411 34.375C46.9411 33.5462 46.6119 32.7513 46.0258 32.1653C45.4398 31.5792 44.6449 31.25 43.8161 31.25C42.9873 31.25 42.1925 31.5792 41.6064 32.1653C41.0204 32.7513 40.6911 33.5462 40.6911 34.375Z" stroke="#FFEF65" stroke-width="2" stroke-linecap="round" stroke-linejoin="round"/>
<path d="M46.941 34.375V25" stroke="#FFEF65" stroke-width="2" stroke-linecap="round" stroke-linejoin="round"/>
<path d="M32.8786 16.5188C32.8786 17.5548 33.2902 18.5484 34.0227 19.2809C34.7553 20.0135 35.7489 20.425 36.7849 20.425C37.8209 20.425 38.8145 20.0135 39.547 19.2809C40.2796 18.5484 40.6911 17.5548 40.6911 16.5188C40.6911 15.4828 40.2796 14.4892 39.547 13.7567C38.8145 13.0241 37.8209 12.6125 36.7849 12.6125C35.7489 12.6125 34.7553 13.0241 34.0227 13.7567C33.2902 14.4892 32.8786 15.4828 32.8786 16.5188V16.5188Z" stroke="#FFEF65" stroke-width="2" stroke-linecap="round" stroke-linejoin="round"/>
<path d="M40.6911 16.5187V3.125C40.6911 2.83483 40.7719 2.55038 40.9245 2.30355C41.077 2.05671 41.2953 1.85723 41.5549 1.72746C41.8144 1.59769 42.105 1.54275 42.394 1.56881C42.683 1.59487 42.959 1.7009 43.1911 1.875L46.9411 4.6875" stroke="#FFEF65" stroke-width="2" stroke-linecap="round" stroke-linejoin="round"/>
</svg>
