<svg width="36" height="36" viewBox="0 0 36 36" fill="none" xmlns="http://www.w3.org/2000/svg">
<path d="M6 10.4497C6 8.61704 7.61111 7 9.43704 7H31.4556C33.3889 7 35 8.61704 35 10.4497V32.5452C35 34.4857 33.3889 35.9949 31.563 35.9949H9.43704C7.61111 36.1027 6 34.4857 6 32.653V10.4497Z" fill="#657581"/>
<path d="M31.32 8.30005H34.32L31.32 4.30005V8.30005Z" fill="#657581"/>
<path d="M6.59998 30.7V34.7L3.59998 30.7H6.59998Z" fill="#657581"/>
<path d="M3 6.44968C3 4.61704 4.61111 3 6.43704 3H28.4556C30.3889 3 32 4.61704 32 6.44968V28.5452C32 30.4857 30.3889 31.9949 28.563 31.9949H6.43704C4.61111 32.1027 3 30.4857 3 28.653V6.44968Z" fill="#F4F5F5"/>
<path d="M14.6667 11.825C14.6667 11.825 14.6667 12.3916 14.6667 13.0291C14.6667 14.1625 15.0917 15.225 15.8709 16.0041L16.3667 16.5H18.6334L19.1292 16.0041C19.9084 15.225 20.3443 15.1979 21.2188 14.9064C22.8125 14.3751 23.875 14.3751 23.875 14.3751" stroke="#2F383E" stroke-width="1.33333" stroke-miterlimit="10" stroke-linecap="round"/>
<path d="M17.5 12.25C17.1242 12.25 16.7639 12.3993 16.4982 12.6649C16.2326 12.9306 16.0833 13.2909 16.0833 13.6667C16.0833 14.0424 16.2326 14.4027 16.4982 14.6684C16.7639 14.9341 17.1242 15.0833 17.5 15.0833C17.8757 15.0833 18.236 14.9341 18.5017 14.6684C18.7674 14.4027 18.9166 14.0424 18.9166 13.6667C18.9166 13.2909 18.7674 12.9306 18.5017 12.6649C18.236 12.3993 17.8757 12.25 17.5 12.25ZM18.0666 15.9333H17.5H16.9333L15.3041 16.2875L16.0833 18.9083L14.525 21.7417C14.525 21.7417 16.5791 20.6792 17.0041 20.4667C17.4291 20.2542 20.4041 19.475 20.4041 19.475L19.2 19.05L19.8375 16.1458L18.0666 15.9333Z" fill="#2F383E"/>
<path d="M13.8875 23.5833L15.3042 22.6625C15.4458 22.5917 15.5875 22.45 15.7292 22.3083L17.2167 20.6083L17.5708 20.4667C18.35 20.1833 19.1292 20.1833 19.9083 20.4667C20.1917 20.5375 20.4042 20.8208 20.4042 21.1042V23.5833H21.8208V21.175C21.8208 20.2542 21.2542 19.475 20.4042 19.1917L18.775 18.625L16.5083 19.475L15.0208 21.175C14.8792 21.3167 14.7375 21.4583 14.5958 21.5292L11.2667 23.5833H13.8875Z" fill="#2F383E"/>
</svg>
