<svg width="36" height="36" viewBox="0 0 36 36" fill="none" xmlns="http://www.w3.org/2000/svg">
<path d="M6 10.4497C6 8.61704 7.61111 7 9.43704 7H31.4556C33.3889 7 35 8.61704 35 10.4497V32.5452C35 34.4857 33.3889 35.9949 31.563 35.9949H9.43704C7.61111 36.1027 6 34.4857 6 32.653V10.4497Z" fill="#657581"/>
<path d="M31.32 8.30005H34.32L31.32 4.30005V8.30005Z" fill="#657581"/>
<path d="M6.59998 30.7V34.7L3.59998 30.7H6.59998Z" fill="#657581"/>
<path d="M3 6.44968C3 4.61704 4.61111 3 6.43704 3H28.4556C30.3889 3 32 4.61704 32 6.44968V28.5452C32 30.4857 30.3889 31.9949 28.563 31.9949H6.43704C4.61111 32.1027 3 30.4857 3 28.653V6.44968Z" fill="#F4F5F5"/>
<path d="M13.6771 20.0071H15.3327V19.8778C15.3426 18.8239 15.6856 18.3416 16.496 17.8445C17.4108 17.2976 17.9825 16.5518 17.9825 15.4134C17.9825 13.733 16.675 12.679 14.7758 12.679C13.0358 12.679 11.6238 13.6435 11.5741 15.5327H13.344C13.3888 14.598 14.0649 14.1506 14.7659 14.1506C15.5265 14.1506 16.1381 14.6577 16.1381 15.4382C16.1381 16.1342 15.6757 16.6115 15.0741 16.9893C14.1942 17.5362 13.6871 18.0881 13.6771 19.8778V20.0071ZM14.5471 23.1094C15.1338 23.1094 15.6359 22.6222 15.6409 22.0156C15.6359 21.419 15.1338 20.9318 14.5471 20.9318C13.9406 20.9318 13.4484 21.419 13.4534 22.0156C13.4484 22.6222 13.9406 23.1094 14.5471 23.1094ZM21.7746 12.8182H19.8506L20.0097 20.0071H21.6105L21.7746 12.8182ZM20.8101 23.1094C21.3968 23.1094 21.8989 22.6222 21.9039 22.0156C21.8989 21.419 21.3968 20.9318 20.8101 20.9318C20.2036 20.9318 19.7114 21.419 19.7164 22.0156C19.7114 22.6222 20.2036 23.1094 20.8101 23.1094Z" fill="#2F383E"/>
</svg>
