<svg width="51" height="50" viewBox="0 0 51 50" fill="none" xmlns="http://www.w3.org/2000/svg">
<path d="M41.5563 14.0562C40.6583 11.5521 39.2433 9.26494 37.4034 7.34354C35.5635 5.42214 33.3397 3.90947 30.8768 2.90389C28.4139 1.89831 25.767 1.42233 23.108 1.5069C20.4491 1.59146 17.8377 2.23467 15.4437 3.39472C13.0496 4.55476 10.9265 6.20567 9.21242 8.2401C7.4983 10.2745 6.23153 12.6469 5.49448 15.2031C4.75742 17.7592 4.56658 20.4419 4.93436 23.0766C5.30214 25.7113 6.22031 28.2392 7.62917 30.4958L2.0625 42.1874L13.7542 36.6208C15.9067 37.9622 18.3071 38.8571 20.8125 39.252" stroke="#FFEF65" stroke-width="2" stroke-linecap="round" stroke-linejoin="round"/>
<path d="M17.6875 14.8436C17.6875 14.071 17.9166 13.3158 18.3458 12.6734C18.775 12.031 19.3851 11.5303 20.0989 11.2347C20.8127 10.939 21.5981 10.8617 22.3558 11.0124C23.1136 11.1631 23.8096 11.5351 24.3559 12.0814C24.9022 12.6277 25.2742 13.3238 25.4249 14.0815C25.5757 14.8392 25.4983 15.6247 25.2027 16.3384C24.907 17.0522 24.4063 17.6623 23.7639 18.0915C23.1216 18.5207 22.3663 18.7498 21.5938 18.7498" stroke="#FFEF65" stroke-width="2" stroke-linecap="round" stroke-linejoin="round"/>
<path d="M21.8125 22.5001C21.5035 22.5001 21.2014 22.5918 20.9444 22.7635C20.6875 22.9351 20.4872 23.1792 20.3689 23.4647C20.2507 23.7502 20.2197 24.0644 20.28 24.3675C20.3403 24.6705 20.4891 24.949 20.7076 25.1675C20.9262 25.386 21.2046 25.5348 21.5077 25.5951C21.8108 25.6554 22.1249 25.6244 22.4104 25.5062C22.6959 25.3879 22.94 25.1877 23.1117 24.9307C23.2834 24.6737 23.375 24.3717 23.375 24.0626C23.375 23.6482 23.2104 23.2508 22.9174 22.9578C22.6243 22.6647 22.2269 22.5001 21.8125 22.5001Z" fill="#FFEF65"/>
<path d="M37.7543 21.8748C39.9029 21.865 42.0085 22.4771 43.817 23.6373C45.6254 24.7975 47.0596 26.4563 47.9463 28.4134C48.833 30.3706 49.1345 32.5425 48.8143 34.6671C48.4941 36.7918 47.5659 38.7784 46.1418 40.3873L47.5397 48.4373L40.248 43.9415C38.7142 44.2936 37.1233 44.3178 35.5795 44.0125C34.0357 43.7072 32.5738 43.0792 31.2895 42.1698C30.0052 41.2603 28.9274 40.0899 28.1268 38.735C27.3262 37.3802 26.8208 35.8715 26.6436 34.3078C26.4665 32.7441 26.6216 31.1606 27.0988 29.661C27.576 28.1614 28.3646 26.7795 29.4129 25.6058C30.4612 24.432 31.7456 23.493 33.1819 22.85C34.6183 22.2071 36.1743 21.8747 37.748 21.8748H37.7543Z" stroke="#FFEF65" stroke-width="2" stroke-linecap="round" stroke-linejoin="round"/>
<path d="M36.4375 29.6874V35.9374" stroke="#FFEF65" stroke-width="2" stroke-linecap="round" stroke-linejoin="round"/>
</svg>
