<svg width="36" height="36" viewBox="0 0 36 36" fill="none" xmlns="http://www.w3.org/2000/svg">
<path d="M6 10.4497C6 8.61704 7.61111 7 9.43704 7H31.4556C33.3889 7 35 8.61704 35 10.4497V32.5452C35 34.4857 33.3889 35.9949 31.563 35.9949H9.43704C7.61111 36.1027 6 34.4857 6 32.653V10.4497Z" fill="#657581"/>
<path d="M31.32 8.30005H34.32L31.32 4.30005V8.30005Z" fill="#657581"/>
<path d="M6.59998 30.7V34.7L3.59998 30.7H6.59998Z" fill="#657581"/>
<path d="M3 6.44968C3 4.61704 4.61111 3 6.43704 3H28.4556C30.3889 3 32 4.61704 32 6.44968V28.5452C32 30.4857 30.3889 31.9949 28.563 31.9949H6.43704C4.61111 32.1027 3 30.4857 3 28.653V6.44968Z" fill="#F4F5F5"/>
<path d="M21.6622 11.0211L14.7376 13.5096C14.4131 13.6178 14.1967 13.9423 14.1967 14.2669V20.6505C14.1967 20.6505 13.8103 20.5763 13.4393 20.6505C12.3573 20.8669 11.6 21.8406 11.6 22.7062C11.6 23.5717 12.4655 24.1127 13.4393 23.8963C14.5213 23.6799 15.2786 22.7062 15.2786 21.8406V15.4571L21.1212 13.4014V19.0275C21.1212 19.0275 20.6763 18.965 20.3638 19.0275C19.2819 19.2439 18.4163 20.2177 18.4163 21.0832C18.4163 21.9488 19.2819 22.4898 20.3638 22.2734C21.4458 22.057 22.3113 21.0832 22.3113 20.2177V11.562C22.3113 11.2407 21.9867 10.9129 21.6622 11.0211Z" fill="#2F383E"/>
</svg>
