<svg width="36" height="36" viewBox="0 0 36 36" fill="none" xmlns="http://www.w3.org/2000/svg">
<path d="M6 10.4497C6 8.61704 7.61111 7 9.43704 7H31.4556C33.3889 7 35 8.61704 35 10.4497V32.5452C35 34.4857 33.3889 35.9949 31.563 35.9949H9.43704C7.61111 36.1027 6 34.4857 6 32.653V10.4497Z" fill="#657581"/>
<path d="M31.32 8.30005H34.32L31.32 4.30005V8.30005Z" fill="#657581"/>
<path d="M6.59998 30.7V34.7L3.59998 30.7H6.59998Z" fill="#657581"/>
<path d="M3 6.44968C3 4.61704 4.61111 3 6.43704 3H28.4556C30.3889 3 32 4.61704 32 6.44968V28.5452C32 30.4857 30.3889 31.9949 28.563 31.9949H6.43704C4.61111 32.1027 3 30.4857 3 28.653V6.44968Z" fill="#F4F5F5"/>
<path d="M21.1251 13.125C21.1876 13.5 21.2501 13.8125 21.2501 14.1875C21.2501 16.6875 19.5626 18.75 17.5001 18.75C15.4376 18.75 13.7501 16.6875 13.7501 14.1875C13.7501 13.8125 13.8126 13.5 13.8751 13.125H21.1251ZM22.0626 11.875H12.9376C12.6251 12.5625 12.5001 13.375 12.5001 14.1875C12.5001 17.375 14.7501 20 17.5001 20C20.2501 20 22.5001 17.375 22.5001 14.1875C22.5001 13.375 22.3751 12.5625 22.0626 11.875Z" fill="#2F383E"/>
<path d="M18.1249 19.2499C20.7499 18.6249 21.8124 17.1874 21.8124 14.3749H14.9999C14.9999 17.6249 16.7499 19.2499 18.1249 19.2499Z" fill="#2F383E"/>
<path d="M17.5 23.0625V19.375" stroke="#2F383E" stroke-width="1.25" stroke-miterlimit="10" stroke-linecap="round" stroke-linejoin="round"/>
<path d="M14.3751 23.125H20.6251" stroke="#2F383E" stroke-width="1.25" stroke-miterlimit="10"/>
</svg>
