<svg width="36" height="36" viewBox="0 0 36 36" fill="none" xmlns="http://www.w3.org/2000/svg">
<path d="M6 10.4497C6 8.61704 7.61111 7 9.43704 7H31.4556C33.3889 7 35 8.61704 35 10.4497V32.5452C35 34.4857 33.3889 35.9949 31.563 35.9949H9.43704C7.61111 36.1027 6 34.4857 6 32.653V10.4497Z" fill="#657581"/>
<path d="M31.32 8.30005H34.32L31.32 4.30005V8.30005Z" fill="#657581"/>
<path d="M6.59998 30.7V34.7L3.59998 30.7H6.59998Z" fill="#657581"/>
<path d="M3 6.44968C3 4.61704 4.61111 3 6.43704 3H28.4556C30.3889 3 32 4.61704 32 6.44968V28.5452C32 30.4857 30.3889 31.9949 28.563 31.9949H6.43704C4.61111 32.1027 3 30.4857 3 28.653V6.44968Z" fill="#F4F5F5"/>
<path d="M13.8778 22H15.5674L17.4648 15.3661H17.5387L19.4314 22H21.121L23.7894 12.5455H21.9474L20.2439 19.4979H20.1608L18.3373 12.5455H16.6615L14.8426 19.4933H14.7549L13.0514 12.5455H11.2095L13.8778 22Z" fill="#2F383E"/>
</svg>
