<svg width="30" height="30" viewBox="0 0 30 30" fill="none" xmlns="http://www.w3.org/2000/svg">
<path d="M1.875 23.75C1.875 24.9103 2.33594 26.0231 3.15641 26.8436C3.97688 27.6641 5.08968 28.125 6.25 28.125C7.41032 28.125 8.52312 27.6641 9.34359 26.8436C10.1641 26.0231 10.625 24.9103 10.625 23.75C10.625 22.5897 10.1641 21.4769 9.34359 20.6564C8.52312 19.8359 7.41032 19.375 6.25 19.375C5.08968 19.375 3.97688 19.8359 3.15641 20.6564C2.33594 21.4769 1.875 22.5897 1.875 23.75Z" stroke="white" stroke-width="2" stroke-linecap="round" stroke-linejoin="round" vector-effect="non-scaling-stroke"/>
<path d="M19.375 18.5C19.375 19.6603 19.8359 20.7731 20.6564 21.5936C21.4769 22.4141 22.5897 22.875 23.75 22.875C24.9103 22.875 26.0231 22.4141 26.8436 21.5936C27.6641 20.7731 28.125 19.6603 28.125 18.5C28.125 17.3397 27.6641 16.2269 26.8436 15.4064C26.0231 14.5859 24.9103 14.125 23.75 14.125C22.5897 14.125 21.4769 14.5859 20.6564 15.4064C19.8359 16.2269 19.375 17.3397 19.375 18.5Z" stroke="white" stroke-width="2" stroke-linecap="round" stroke-linejoin="round" vector-effect="non-scaling-stroke"/>
<path d="M10.625 23.7501V8.83889C10.6249 8.1045 10.8558 7.38869 11.285 6.79279C11.7143 6.1969 12.3201 5.75111 13.0167 5.51856L25.906 1.93922C26.1658 1.86734 26.4387 1.85645 26.7034 1.90739C26.9681 1.95834 27.2175 2.06974 27.432 2.23292C27.6466 2.3961 27.8206 2.60664 27.9404 2.84812C28.0601 3.0896 28.1225 3.35549 28.1227 3.62506V18.5001" stroke="white" stroke-width="2" stroke-linecap="round" stroke-linejoin="round" vector-effect="non-scaling-stroke"/>
<path d="M10.625 11.1722L28.125 5.92224" stroke="white" stroke-width="2" stroke-linecap="round" stroke-linejoin="round" vector-effect="non-scaling-stroke"/>
</svg>
