<svg width="31" height="30" viewBox="0 0 31 30" fill="none" xmlns="http://www.w3.org/2000/svg">
<path d="M6.22778 4.79753V25.2025C6.22776 25.5051 6.30617 25.8025 6.45538 26.0657C6.60459 26.3289 6.81949 26.549 7.07912 26.7043C7.33874 26.8597 7.63421 26.9451 7.93669 26.9522C8.23916 26.9593 8.53832 26.8879 8.80495 26.7449L27.8485 16.5424C28.1274 16.3928 28.3606 16.1704 28.5232 15.8988C28.6857 15.6272 28.7716 15.3166 28.7716 15C28.7716 14.6835 28.6857 14.3729 28.5232 14.1013C28.3606 13.8297 28.1274 13.6073 27.8485 13.4577L8.80495 3.25519C8.53832 3.11218 8.23916 3.04074 7.93669 3.04785C7.63421 3.05495 7.33874 3.14036 7.07912 3.29573C6.81949 3.45111 6.60459 3.67114 6.45538 3.93435C6.30617 4.19756 6.22776 4.49496 6.22778 4.79753V4.79753Z" fill="#35323D" stroke="#35323D" stroke-width="2" stroke-linecap="round" stroke-linejoin="round"/>
</svg>
