<svg width="47" height="46" viewBox="0 0 47 46" fill="none" xmlns="http://www.w3.org/2000/svg">
<path fill-rule="evenodd" clip-rule="evenodd" d="M44.7897 18.1706C47.499 29.6562 40.1821 41.1169 28.4466 43.7686C16.7113 46.4202 5.00166 39.2587 2.29236 27.7731C-0.416943 16.2875 6.89994 4.82686 18.6352 2.17521C30.3708 -0.476509 42.0804 6.68502 44.7897 18.1706" fill="#FFEF65"/>
<path fill-rule="evenodd" clip-rule="evenodd" d="M10.2542 17.4912C6.12548 19.289 4.26481 23.9329 6.09829 27.8639L7.01587 27.4643C7.43542 27.2815 7.76155 26.9483 7.95468 26.5402C8.75313 24.8515 10.1684 23.4171 12.0703 22.589C14.2055 21.6593 16.5261 21.6792 18.5255 22.4526L18.532 22.4497C19.4349 22.8279 21.0495 21.3538 21.0495 21.3538C19.216 17.4228 14.3826 15.6935 10.2542 17.4912" fill="#2F383E"/>
<path fill-rule="evenodd" clip-rule="evenodd" d="M33.3346 12.2815C28.8179 12.4101 25.2249 16.0165 25.3096 20.3371C25.3096 20.3371 27.2444 21.0399 28.0631 20.2588L28.0705 20.2585C29.5313 18.7144 31.6144 17.713 33.95 17.6467C36.0327 17.5873 37.9443 18.2823 39.4115 19.4687C39.7628 19.7525 40.2006 19.9136 40.656 19.9007L41.6655 19.8718C41.5808 15.5512 37.8514 12.1528 33.3346 12.2815" fill="#2F383E"/>
</svg>
